<svg xmlns="http://www.w3.org/2000/svg" width="186.355" height="132.482">
  <path fill="#4e4e4e" d="M15.026 132.483A15.04 15.04 0 0 1 0 117.462V15.023A15.042 15.042 0 0 1 15.026.002h156.308a15.042 15.042 0 0 1 15.021 15.021v102.439a15.039 15.039 0 0 1-15.021 15.021zM6.01 15.022v102.439a9.026 9.026 0 0 0 9.016 9.012h156.308a9.026 9.026 0 0 0 9.016-9.012V15.022a8.959 8.959 0 0 0-.689-3.453L118.544 64.86l34.4 32.275a3 3 0 0 1 .129 4.24 2.993 2.993 0 0 1-2.189.949 2.986 2.986 0 0 1-2.056-.814L114.25 69.069a2.68 2.68 0 0 1-.244-.256l-9.8 8.545a16.784 16.784 0 0 1-11.03 3.986 16.814 16.814 0 0 1-11.035-3.982l-9.794-8.545a2.908 2.908 0 0 1-.24.252L37.52 101.51a2.994 2.994 0 0 1-2.056.814 3.012 3.012 0 0 1-2.194-.949 3 3 0 0 1 .134-4.24l34.41-32.273L6.703 11.553a8.953 8.953 0 0 0-.693 3.469zm80.085 57.8a11.249 11.249 0 0 0 14.164 0l75.372-65.725a8.97 8.97 0 0 0-4.3-1.092H15.023a8.958 8.958 0 0 0-4.288 1.088z" data-name="Vereinigungsmenge 2"/>
</svg>