<svg xmlns="http://www.w3.org/2000/svg" width="238" height="195.927">
  <path fill="#fff" d="M11.609 192.696a6.194 6.194 0 0 1 2.561-8.822c3.348-1.783 16.162-1.153 16.162-1.153s-5.816 10.555-9.164 12.338a7.419 7.419 0 0 1-3.493.867 7.125 7.125 0 0 1-6.066-3.23zM.236 64.633c3.527-44.383 5.71-50.155 47.7-61.3s76.116 8.558 120.272 16.718 44.577 4.777 56.354 15.923-5.022 26.67 0 40.6 19.236 24.083 10.837 43.787 5.961 19.9-44.432 35.029-157.138 25.476-157.138 25.476S-3.291 109.018.236 64.633z" data-name="Vereinigungsmenge 1"/>
</svg>