<svg xmlns="http://www.w3.org/2000/svg" viewBox="0 0 512 512">
  <path d="M220.5 306.1h70.9c8 0 14.6-6.5 14.6-14.6v-70.9c0-8-6.5-14.6-14.6-14.6h-70.9c-8 0-14.6 6.5-14.6 14.6v70.9c0 8 6.6 14.6 14.6 14.6zm-8.5-86c0-5 4-9 9-9h70.9c5 0 9 4 9 9V291c0 5-4 9-9 9H221c-5 0-9-4-9-9v-70.9z"/>
  <path d="M256.2 282.4c14.6 0 26.6-12.1 26.6-26.6 0-14.6-12.1-26.6-26.6-26.6-14.6 0-26.6 12.1-26.6 26.6 0 14.6 12 26.6 26.6 26.6zm0-47.2c11.6 0 20.6 9 20.6 20.6 0 11.6-9 20.6-20.6 20.6-11.6 0-20.6-9-20.6-20.6 0-11.6 9-20.6 20.6-20.6zM285.8 235.2c5 0 9-4 9-9s-4-9-9-9-9 4-9 9 4 9 9 9zm0-11.6c1.5 0 3 1.5 3 3s-1.5 3-3 3-3-1.5-3-3 1-3 3-3z"/>
</svg>