<svg xmlns="http://www.w3.org/2000/svg" viewBox="0 0 84.7 60.2">
  <path d="M28.6 40.6c-.5-4.9 1.4-7.8 6.8-9.9.1 2.3.3 4.6-1.5 6.4-1.5 1.6-3.3 2.5-5.3 3.5M27.3 40.6c.5-4.9-1.4-7.8-6.8-9.9-.1 2.3-.3 4.6 1.5 6.4 1.5 1.6 3.4 2.5 5.3 3.5M28.6 32.9c-.5-4.9 1.4-7.8 6.8-9.9.1 2.3.3 4.6-1.5 6.4-1.5 1.5-3.3 2.5-5.3 3.5M27.3 32.9c.5-4.9-1.4-7.8-6.8-9.9-.1 2.3-.3 4.6 1.5 6.4 1.5 1.5 3.4 2.5 5.3 3.5M25.8 10.7c-1.5-1.5-3.1-2.4-5.1-3.4l-1.3-4.9-.8.2 1.9 7.8c.6 3 2.7 5 6.8 6.6.2-2.3.3-4.5-1.5-6.3M30.3 10.7c1.5-1.5 3.1-2.4 5.1-3.4l1.3-4.9.8.2-1.9 7.8c-.6 3-2.7 5-6.8 6.6-.2-2.3-.4-4.5 1.5-6.3"/>
  <path d="M25.8 18.5c-1.5-1.5-3.1-2.4-5.1-3.4l-1.3-4.9-.8.2 1.9 7.8c.6 3 2.7 5 6.8 6.6.2-2.3.3-4.5-1.5-6.3M30.3 18.5c1.5-1.5 3.1-2.4 5.1-3.4l1.3-4.9.8.2-1.9 7.8c-.6 3-2.7 5-6.8 6.6-.2-2.3-.4-4.5 1.5-6.3M28 11.3s-2.3-3.1-2.5-5.1C25.2 2.1 28 .6 28 .6s2.8 1.5 2.5 5.7c-.2 1.9-2.5 5-2.5 5zM34.9 42.6c0 9.4-7.6 17-17 17s-17-7.6-17-17 7.6-17 17-17v14.2c-1.6 0-2.8 1.3-2.8 2.8 0 1.6 1.3 2.8 2.8 2.8 1.6 0 2.8-1.3 2.8-2.8h14.2zM78.2 51.9v1.4h1.1V57c0 .4.1.6.1.9.4 1.1 1.7 1.2 2.1 1.2 1.4 0 1.9-.7 2.1-1.3.1-.3.1-.8.1-1.2h-1.2c0 .1.1.6-.3.9-.1.1-.3.1-.3.1-.1 0-.2 0-.3-.1-.2-.1-.2-.3-.2-.7v-3.6h1.9v-1.4h-1.9v-2.1l-2 .7v1.4h-1.2zm-5.9 3.5c0-.7.1-1.4.7-1.9.1-.1.4-.3 1-.3.7 0 1.3.5 1.5 1.2.1.3.1.7.1 1.1 0 .5-.1 1-.3 1.5-.3.5-.8.8-1.3.8-.3 0-.5-.1-.8-.2-.9-.7-.9-2-.9-2.2m-2 0c0 1.5.7 2.8 2.2 3.4.6.2 1.2.2 1.5.2.9 0 1.5-.3 1.8-.4 1.3-.6 1.7-1.6 1.8-2.1.1-.4.2-.8.2-1.2 0-1.5-.7-2.8-2.1-3.4-.5-.2-1-.3-1.6-.3-.7 0-2.6.2-3.5 2.1-.3.7-.3 1.4-.3 1.7m-6.5 2.1v1.4H68v-1.4h-1.2v-2.1c.1-.4.1-.6.2-.9.1-.2.2-.3.3-.5.6-.6 1.4-.6 1.6-.6h.7v-1.7c-.4-.1-.6-.1-.8-.1-.3 0-1.1.1-1.8.8-.1.2-.3.4-.5.8v-1.4h-2.9v1.4h1v4.3h-.8zm-9.5 0v1.4h3.9v-1.4h-1v-2.2c0-.5.1-1 .3-1.4.3-.4.8-.8 1.3-.8.3 0 .6.1.7.2.3.2.5.5.5 1.2v2.9h-.9v1.4h3.8v-1.4H62V54c0-.2 0-.7-.2-1.2-.4-.8-1.4-1.2-2.3-1.2-.6 0-1.3.2-1.8.6-.2.2-.3.3-.4.5v-3.9h-2.9v1.3h.9v7.3h-1zM52 52.7c-.2-.2-.3-.5-.5-.6-.6-.4-1.4-.4-1.6-.4-1.4 0-2.5.8-2.9 2.1-.2.7-.2 1.3-.2 1.5 0 .4 0 1.5.8 2.5.3.4.6.6.7.7.6.4 1.4.5 2.2.5 2 0 2.8-1.1 3-1.9.1-.3.1-.4.1-.7h-1.7c0 .2-.1.3-.2.5-.3.6-.9.6-1.2.6-.2 0-.6 0-1-.4-.2-.2-.3-.4-.4-.5-.3-.5-.3-1.3-.3-1.4 0-1 .4-2.2 1.6-2.2.5 0 .8.2 1 .4.3.3.4.7.4 1.2h1.7v-2.8H52v.9zm-8.1-.2c-.4-.4-.5-.5-.8-.6-.5-.2-1-.2-1.2-.2-.8 0-1.7.3-2.2 1-.1.2-.3.6-.3 1.1 0 1.1.6 1.6 1 1.8.3.2.7.3.8.3l1.3.3c.5.1.9.3 1 .5.1.1.1.3.1.3 0 .1 0 .3-.1.4-.1.2-.4.3-.9.3-.8 0-1.2-.4-1.4-.7-.1-.2-.1-.4-.1-.6h-1.6v2.4H41V58s.3.4.5.5c.6.5 1.3.5 1.5.5.9 0 1.4-.3 1.8-.5.8-.6.8-1.4.8-1.7 0-1.1-.7-1.6-1-1.8-.3-.2-.8-.3-.9-.3l-1.4-.3c-.3-.1-.7-.2-.8-.5 0-.1-.1-.1-.1-.3 0-.2.1-.3.1-.3.2-.3.6-.3.9-.3.2 0 .7 0 1 .3.3.3.3.5.3.8h1.6v-2.3h-1.5v.7zM60.3 43.2c.1-.8.3-1.3.6-1.6.4-.4.9-.5 1.1-.5.4 0 .7.1 1 .4.4.3.7.8.7 1.9 0 .3 0 1.1-.6 1.7-.4.5-.9.5-1.2.5-.5 0-.8-.2-.9-.3-.9-.7-.8-1.8-.7-2.1m3.3-2.4c-.1-.1-.4-.4-.7-.6-.7-.5-1.3-.5-1.6-.5-1 0-1.6.4-1.9.6-.6.4-1.2 1.4-1.2 3.1 0 1.3.4 2.6 1.6 3.3.4.2.9.4 1.4.4.7 0 1.6-.3 2.1-.8.2-.2.4-.5.4-.5v1.1h2.8v-1.4h-1v-8.7h-3v1.4h1v2.6zm-15.1 4.7v1.4h4v-1.4h-.9V43c.1-.5.1-1 .4-1.3.4-.4 1-.5 1.2-.5.1 0 .4 0 .7.2.5.3.5.7.6 1.2v3h-.9V47h4v-1.4h-1v-3.4c0-.1 0-.8-.3-1.2-.2-.3-.6-.9-1.5-1.1-.4-.1-.7-.1-.9-.1-.7 0-1.4.2-1.9.6-.2.2-.3.4-.5.6v-1.1h-3v1.4h1v4.3h-1zm-9.4-5.6v1.4h.9v3.3c0 .4 0 .7.2 1.1.3.9 1.3 1.4 2.2 1.4.3 0 1.3-.1 1.9-.7.1-.1.2-.3.4-.6v1.1h2.8v-1.4h-.9v-5.6h-3.1v1.4h1V44c0 .3 0 1-.7 1.4-.3.2-.6.2-.7.2-.3 0-.5-.1-.6-.2-.5-.2-.5-.7-.6-1.2v-4.3h-2.8zM63 33.5v1.4h4v-1.4h-.9V31c.1-.5.1-1 .4-1.3.4-.4 1-.5 1.2-.5.1 0 .4 0 .7.2.5.3.5.7.6 1.2v3h-1V35h4v-1.4h-1v-3.4c0-.1 0-.8-.3-1.2-.2-.3-.6-.9-1.5-1.1-.4-.1-.7-.1-.9-.1-.7 0-1.4.2-1.9.6-.2.2-.3.4-.5.6v-1.1h-3v1.4h1v4.3H63zm-6.6 0v1.4h4.2v-1.4h-1.2v-2.1c.1-.4.1-.6.2-.9.1-.2.2-.4.3-.5.6-.6 1.4-.6 1.6-.6h.7v-1.6c-.4-.1-.6-.1-.8-.1-.3 0-1.1.1-1.8.8-.1.2-.3.4-.5.8v-1.4h-2.9v1.4h1v4.3h-.8zm-6.2-2.1c0-.7.1-1.4.7-1.9.1-.1.4-.3 1-.3.7 0 1.3.5 1.5 1.2.1.3.1.7.1 1.1 0 .5-.1 1-.3 1.5-.3.5-.8.8-1.3.8-.3 0-.5-.1-.8-.2-1-.7-.9-2-.9-2.2m-2.1 0c0 1.5.7 2.8 2.2 3.4.7.2 1.3.2 1.5.2.9 0 1.5-.2 1.8-.4 1.3-.6 1.7-1.6 1.8-2.1.1-.4.2-.8.2-1.2 0-1.5-.7-2.8-2.1-3.4-.5-.2-1-.3-1.6-.3-.7 0-2.6.2-3.5 2.1-.3.7-.3 1.4-.3 1.7M39 33.6v1.3h3.8v-1.3H42v-1l1.3-1 1.2 2h-.9v1.3h3.8v-1.3h-.7l-2.1-3.1 1.7-1.4h.7v-1.3h-4v1.3h1l-2 1.7v-6h-2.9v1.4h.9v7.4h-1z"/>
</svg>