<svg xmlns="http://www.w3.org/2000/svg" viewBox="0 0 37.8 60.2">
  <path d="M28.3 40.6c-.5-4.9 1.4-7.8 6.8-9.9.1 2.3.3 4.6-1.5 6.4-1.5 1.6-3.3 2.5-5.3 3.5M27.1 40.6c.5-4.9-1.4-7.8-6.8-9.9-.1 2.3-.3 4.6 1.5 6.4 1.5 1.6 3.3 2.5 5.3 3.5M28.3 32.9c-.5-4.9 1.4-7.8 6.8-9.9.1 2.3.3 4.6-1.5 6.4-1.5 1.5-3.3 2.5-5.3 3.5M27.1 32.9c.5-4.9-1.4-7.8-6.8-9.9-.1 2.3-.3 4.6 1.5 6.4 1.5 1.5 3.3 2.5 5.3 3.5M25.5 10.7c-1.5-1.5-3.1-2.4-5.1-3.4l-1.3-4.9-.8.2 1.9 7.8c.6 3 2.7 5 6.8 6.6.2-2.3.3-4.5-1.5-6.3M30 10.7c1.5-1.5 3.1-2.4 5.1-3.4l1.3-4.9.8.2-1.9 7.8c-.6 3-2.7 5-6.8 6.6-.2-2.3-.3-4.5 1.5-6.3"/>
  <path d="M25.5 18.5c-1.5-1.5-3.1-2.4-5.1-3.4l-1.3-4.9-.8.2 1.9 7.8c.6 3 2.7 5 6.8 6.6.2-2.3.3-4.5-1.5-6.3M30 18.5c1.5-1.5 3.1-2.4 5.1-3.4l1.3-4.9.8.2-1.9 7.8c-.6 3-2.7 5-6.8 6.6-.2-2.3-.3-4.5 1.5-6.3M27.8 11.3s-2.3-3.1-2.5-5.1C24.9 2 27.7.5 27.7.5s2.8 1.5 2.5 5.7c-.2 2-2.4 5.1-2.4 5.1zM34.6 42.6c0 9.4-7.6 17-17 17s-17-7.6-17-17 7.6-17 17-17v14.2c-1.6 0-2.8 1.3-2.8 2.8 0 1.6 1.3 2.8 2.8 2.8 1.6 0 2.8-1.3 2.8-2.8h14.2z"/>
</svg>