<svg xmlns="http://www.w3.org/2000/svg" viewBox="0 0 512 512">
  <path d="M255.9 206c-26.6 0-47.8 12.1-49.8 38.9-1.3 17.7 8.4 25.5 9.4 27.4l15.8-12.5c-.8-1.5-5.6-7.4-5.2-14.2.5-9.5 11.9-21.4 29.4-21.4 17.8 0 29.7 11.9 29.7 23 0 11.6-10.9 15.5-16.6 15.9-3.6.3-6.9-.5-8.6-2-.8-.7-1.1-1.4-1.2-2.4v-23.5h-17.6V276c-.1 10.6-5.8 11.4-7.6 11.4-1.5 0-3.2-.8-5.2-1.6l-4.2-1.9c-.6 6.6-.9 8.9-.8 11.4 0 2.1 0 6.5 4.2 8.4 3.4 1.5 7.1 2.3 10.7 2.3 14.9 0 20.2-11.6 20.4-26.6v-.3c2.9.6 6.5 1.2 10.6 1.1 17.1-.4 33.9-13.1 36.2-30.7 3.6-25.8-23.4-43.5-49.6-43.5zm44 42.8c-2 15.4-17.4 25.3-30.6 25.6-4.1.1-7.8-.7-10.7-1.3-.7-.2-1.4-.3-2.1-.4l-3.5-.7v7.3c-.3 18.7-8.5 20.8-14.6 20.8-2.7 0-5.7-.6-8.3-1.8-.3-.1-.7-.3-.7-3 0-.9 0-1.7.1-2.7 1.3.5 2.7.8 4.3.8 1.4 0 5.1-.3 8.3-3.2 3.3-3 5-7.7 5.1-14v-35h5.9V259c.1 2.6 1.2 4.9 3.1 6.6 2.9 2.6 7.7 3.9 13 3.5 11.6-.9 22-9 22-21.8 0-14.1-14.3-28.9-35.6-28.9-20.7 0-34.6 14.3-35.3 26.9-.2 4.2.9 8.5 3.3 13.1l-7.1 5.6c-3.6-5.4-5.1-11.4-4.6-18.7 2.2-30.2 31.5-33.5 43.9-33.5 22.5 0 47 14.8 44.1 37z"/>
</svg>