<svg xmlns="http://www.w3.org/2000/svg" viewBox="0 0 512 511">
  <path d="M212 273.8l-4.3 1.7c-4.5 1-6.5 6.1-3.9 10.1 2.6 3.9 8.2 5.3 12.5 6.2.3 1.2.7 2.8 1.6 4.2 1.5 2.1 3.8 3.1 6.6 2.7 9.4-1.4 10.4-.7 14 1.8 1.7 1.2 4.5 3.1 6.5 4 3.4 1.4 7.2 2.1 11 2.1 7.3 0 12-2.5 12-2.5 4.2-2.4 9.7-7.9 18.2-5.7 2.5.6 4.6.4 6.2-.6 2.4-1.5 3-4.2 3.3-5.9 4.8-1 11-2.4 13.1-7.4.8-1.8.7-3.9-.2-5.5-.8-1.6-2.4-2.8-4.2-3.2l-4.4-1.7c-5.1-2-8.9-5.9-11-11.1h4.7c5.2 0 9.4-4.2 9.4-9.4s-4.2-9.4-9.4-9.4h-6.2l.3-3c1.7-18.5-13.1-34.5-31.7-34.5s-33.4 16-31.7 34.5l.3 3h-6.2c-5.2 0-9.4 4.2-9.4 9.4s4.2 9.4 9.4 9.4h4.7c-2.2 4.9-6.1 8.8-11.2 10.8zm6.3-17.3c-1.7 0-3.1-1.4-3.1-3.1 0-1.7 1.4-3.1 3.1-3.1h13.1l-.9-9.8c-1.4-15.2 10.9-27.7 25.5-27.7s26.9 12.5 25.5 27.7l-.9 9.8h13.1c1.7 0 3.1 1.4 3.1 3.1 0 1.7-1.4 3.1-3.1 3.1H281l.8 3.8c1.9 9.1 7.8 16.2 16 19.4l4.9 1.9c.2.1.2 0 .5.1 0 0 0 .1-.1.3-.9 2.1-6.3 3.2-9.1 3.8-.4.1-.7.1-1 .2-2.5.5-3 3.1-3.2 4.4-.1.5-.3 1.7-.5 2-.1 0-.5.1-1.3-.1-11.2-2.9-18.8 3.9-22.7 6.3-5.3 2.3-12.1 2.4-17.5.2-2.4-1.3-4-2.4-5.4-3.4-4.6-3.3-7.1-4.6-18.5-2.9h-.5c-.3-.3-.6-1.7-.7-2.3-.3-1.4-.8-3.8-3.2-4.2h-.2c-2.7-.5-8.4-1.6-9.9-3.7-.2-.3-.2-.4-.1-.5 0-.1.4-.1.5-.1l4.8-1.9c8.2-3.2 14.1-10.3 16-19.2l.8-3.9h-13.1z"/>
</svg>